<svg width="24" height="17" viewBox="0 0 24 17" fill="none" xmlns="http://www.w3.org/2000/svg">
<path d="M2.21208 17H5.81814V8.24466L0.666626 4.38202V15.4549C0.666626 16.3099 1.3595 17 2.21208 17Z" fill="#AFAFAF"/>
<path d="M18.1818 17H21.7878C22.643 17 23.3333 16.3073 23.3333 15.4549V4.38202L18.1818 8.24466" fill="#AFAFAF"/>
<path d="M18.1818 1.54944V8.24469L23.3333 4.38205V2.32197C23.3333 0.411248 21.1516 -0.678017 19.6242 0.4679" fill="#AFAFAF"/>
<path d="M5.81812 8.24473V1.54948L11.9999 6.18466L18.1818 1.54948V8.24473L11.9999 12.8799" fill="#AFAFAF"/>
<path d="M0.666626 2.32197V4.38205L5.81814 8.24469V1.54944L4.37572 0.4679C2.84572 -0.678017 0.666626 0.411248 0.666626 2.32197Z" fill="#AFAFAF"/>
</svg>
