<svg width="20" height="19" viewBox="0 0 20 19" fill="none" xmlns="http://www.w3.org/2000/svg">
<path d="M8.33334 12L5.77062 14.5948C5.41316 14.9567 5.23443 15.1377 5.0808 15.1504C4.94752 15.1615 4.81702 15.1079 4.72997 15.0064C4.62963 14.8894 4.62963 14.635 4.62963 14.1263V12.8264C4.62963 12.37 4.2559 12.0398 3.80434 11.9736V11.9736C2.71146 11.8135 1.85315 10.9552 1.69307 9.86235C1.66667 9.68215 1.66667 9.46712 1.66667 9.03706V5.16669C1.66667 3.76656 1.66667 3.06649 1.93916 2.53171C2.17884 2.06131 2.56129 1.67885 3.0317 1.43917C3.56647 1.16669 4.26654 1.16669 5.66667 1.16669H11.8333C13.2335 1.16669 13.9335 1.16669 14.4683 1.43917C14.9387 1.67885 15.3212 2.06131 15.5609 2.53171C15.8333 3.06649 15.8333 3.76656 15.8333 5.16669V8.66669M15.8333 17.8334L14.0197 16.5724C13.7647 16.3952 13.6372 16.3065 13.4985 16.2437C13.3754 16.1879 13.2459 16.1474 13.113 16.1229C12.9632 16.0953 12.8079 16.0953 12.4974 16.0953H11C10.0666 16.0953 9.59987 16.0953 9.24335 15.9136C8.92975 15.7538 8.67478 15.4988 8.51499 15.1852C8.33334 14.8287 8.33334 14.362 8.33334 13.4286V11.3334C8.33334 10.3999 8.33334 9.93322 8.51499 9.5767C8.67478 9.2631 8.92975 9.00813 9.24335 8.84834C9.59987 8.66669 10.0666 8.66669 11 8.66669H15.6667C16.6001 8.66669 17.0668 8.66669 17.4233 8.84834C17.7369 9.00813 17.9919 9.2631 18.1517 9.5767C18.3333 9.93322 18.3333 10.3999 18.3333 11.3334V13.5953C18.3333 14.3718 18.3333 14.7601 18.2065 15.0664C18.0373 15.4748 17.7129 15.7992 17.3045 15.9684C16.9982 16.0953 16.6099 16.0953 15.8333 16.0953V17.8334Z" stroke="#212121" stroke-width="1.5" stroke-linecap="round" stroke-linejoin="round"/>
</svg>
