<svg width="20" height="20" viewBox="0 0 20 20" fill="none" xmlns="http://www.w3.org/2000/svg">
<circle cx="10" cy="10" r="9.5" stroke="#E6E6E6"/>
<path d="M6.76959 6.76446C6.76959 6.31623 6.76959 6.09212 6.86305 5.96858C6.94447 5.86095 7.06891 5.79435 7.20362 5.78631C7.35825 5.77707 7.54473 5.90139 7.91768 6.15002L12.771 9.38558C13.0792 9.59102 13.2333 9.69374 13.287 9.82322C13.3339 9.93641 13.3339 10.0636 13.287 10.1768C13.2333 10.3063 13.0792 10.409 12.771 10.6145L7.91768 13.85C7.54473 14.0986 7.35825 14.223 7.20362 14.2137C7.06891 14.2057 6.94447 14.1391 6.86305 14.0315C6.76959 13.9079 6.76959 13.6838 6.76959 13.2356V6.76446Z" fill="#212121"/>
</svg>
