<svg width="24" height="18" viewBox="0 0 24 18" fill="none" xmlns="http://www.w3.org/2000/svg">
<path d="M1.4714 7.83904C1.4714 7.83904 12.086 3.88771 15.7673 2.49634C17.1786 1.93984 21.9643 0.158893 21.9643 0.158893C21.9643 0.158893 24.1732 -0.620205 23.9891 1.27197C23.9277 2.05114 23.4369 4.77811 22.9461 7.72774C22.2097 11.9018 21.4121 16.4653 21.4121 16.4653C21.4121 16.4653 21.2894 17.7453 20.2464 17.9679C19.2033 18.1905 17.4853 17.1888 17.1786 16.9662C16.9331 16.7993 12.5768 14.2948 10.9816 13.0704C10.5521 12.7365 10.0613 12.0687 11.0429 11.2896C13.2518 9.45301 15.8901 7.17125 17.4853 5.72427C18.2216 5.05639 18.9579 3.49812 15.8901 5.39029C11.5338 8.11733 7.23888 10.6774 7.23888 10.6774C7.23888 10.6774 6.25715 11.2339 4.41649 10.733C2.57575 10.2322 0.428279 9.56431 0.428279 9.56431C0.428279 9.56431 -1.04418 8.72952 1.4714 7.83904Z" fill="#AFAFAF"/>
</svg>
