<svg width="26" height="13" viewBox="0 0 26 13" fill="none" xmlns="http://www.w3.org/2000/svg">
<path fill-rule="evenodd" clip-rule="evenodd" d="M25.4034 0.880274C25.5841 0.372855 25.4034 0 24.5432 0H21.6988C20.9756 0 20.6421 0.322091 20.4613 0.677265C20.4613 0.677265 19.0148 3.64563 16.9657 5.57378C16.3027 6.13192 16.0014 6.30951 15.6397 6.30951C15.459 6.30951 15.1972 6.13192 15.1972 5.62455V0.880277C15.1972 0.271372 14.9873 0 14.3846 0H9.91481C9.46285 0 9.19103 0.282607 9.19103 0.550443C9.19103 1.12767 10.2155 1.26079 10.3212 2.88453V6.41103C10.3212 7.18421 10.1553 7.32439 9.79368 7.32439C8.82941 7.32439 6.48383 4.34276 5.09268 0.930995C4.82004 0.267869 4.5466 0 3.81964 0H0.975235C0.162546 0 0 0.322091 0 0.677265C0 1.31155 0.964318 4.45751 4.49003 8.61826C6.84048 11.4597 10.1521 13 13.1656 13C14.9736 13 15.1973 12.6579 15.1973 12.0686V9.92105C15.1973 9.23684 15.3686 9.10029 15.9411 9.10029C16.363 9.10029 17.0862 9.27788 18.7738 10.6479C20.7024 12.2716 21.0203 13 22.1051 13H24.9496C25.7622 13 26.1686 12.6579 25.9342 11.9828C25.6777 11.3099 24.7569 10.3337 23.535 9.17639C22.872 8.51677 21.8776 7.80643 21.5763 7.45117C21.1544 6.99456 21.2749 6.79155 21.5763 6.38565C21.5763 6.38565 25.0418 2.27562 25.4034 0.880274Z" fill="#AFAFAF"/>
</svg>
