<svg width="18" height="20" viewBox="0 0 18 20" fill="none" xmlns="http://www.w3.org/2000/svg">
<path d="M17.25 3.58334C17.25 5.10213 13.5563 6.33334 9 6.33334C4.44365 6.33334 0.75 5.10213 0.75 3.58334M17.25 3.58334C17.25 2.06456 13.5563 0.833344 9 0.833344C4.44365 0.833344 0.75 2.06456 0.75 3.58334M17.25 3.58334V16.4167C17.25 17.9383 13.5833 19.1667 9 19.1667C4.41667 19.1667 0.75 17.9383 0.75 16.4167V3.58334M17.25 10C17.25 11.5217 13.5833 12.75 9 12.75C4.41667 12.75 0.75 11.5217 0.75 10" stroke="#212121" stroke-width="1.5" stroke-linecap="round" stroke-linejoin="round"/>
</svg>
