<svg width="20" height="18" viewBox="0 0 20 18" fill="none" xmlns="http://www.w3.org/2000/svg">
<path d="M1.29124 6.25H18.7079M8.16624 0.75L6.33291 6.25L9.99957 16.7917L13.6662 6.25L11.8329 0.75M10.5629 16.574L18.775 6.71947C18.9142 6.55246 18.9838 6.46895 19.0104 6.37573C19.0338 6.29355 19.0338 6.20645 19.0104 6.12426C18.9838 6.03105 18.9142 5.94754 18.775 5.78053L14.8028 1.01386C14.722 0.916874 14.6816 0.868378 14.632 0.833514C14.5881 0.802624 14.5391 0.779683 14.4873 0.765738C14.4288 0.75 14.3657 0.75 14.2394 0.75H5.75972C5.63346 0.75 5.57034 0.75 5.51184 0.765738C5.46001 0.779683 5.41103 0.802624 5.36713 0.833514C5.31759 0.868378 5.27718 0.916874 5.19635 1.01387L1.22413 5.78053C1.08496 5.94754 1.01537 6.03105 0.988775 6.12426C0.96533 6.20645 0.96533 6.29355 0.988775 6.37573C1.01537 6.46895 1.08496 6.55245 1.22413 6.71947L9.43621 16.574C9.62968 16.8061 9.72641 16.9222 9.84223 16.9645C9.94384 17.0017 10.0553 17.0017 10.1569 16.9645C10.2727 16.9222 10.3695 16.8061 10.5629 16.574Z" stroke="#212121" stroke-width="1.5" stroke-linecap="round" stroke-linejoin="round"/>
</svg>
