<svg width="18" height="20" viewBox="0 0 18 20" fill="none" xmlns="http://www.w3.org/2000/svg">
<path d="M16.7916 5.67125L8.99997 9.99995M8.99997 9.99995L1.2083 5.67125M8.99997 9.99995L9 18.7083M17.25 13.7203V6.27963C17.25 5.96554 17.25 5.8085 17.2037 5.66843C17.1628 5.54452 17.0959 5.43078 17.0074 5.33482C16.9075 5.22634 16.7702 5.15007 16.4956 4.99754L9.71228 1.22902C9.45231 1.08459 9.32232 1.01238 9.18467 0.984064C9.06283 0.959007 8.93717 0.959007 8.81534 0.984064C8.67768 1.01238 8.5477 1.08459 8.28772 1.22902L1.50439 4.99754C1.22983 5.15007 1.09254 5.22634 0.99258 5.33482C0.904144 5.43078 0.837218 5.54452 0.796278 5.66844C0.75 5.8085 0.75 5.96555 0.75 6.27964V13.7203C0.75 14.0344 0.75 14.1915 0.796278 14.3315C0.837218 14.4554 0.904145 14.5692 0.99258 14.6651C1.09255 14.7736 1.22983 14.8499 1.50439 15.0024L8.28773 18.7709C8.5477 18.9154 8.67768 18.9876 8.81534 19.0159C8.93717 19.0409 9.06283 19.0409 9.18467 19.0159C9.32232 18.9876 9.45231 18.9154 9.71228 18.7709L16.4956 15.0024C16.7702 14.8499 16.9075 14.7736 17.0074 14.6651C17.0959 14.5692 17.1628 14.4554 17.2037 14.3315C17.25 14.1915 17.25 14.0344 17.25 13.7203Z" stroke="#162A2D" stroke-width="1.5" stroke-linecap="round" stroke-linejoin="round"/>
</svg>
